<?xml version="1.0" standalone="no"?>
<!DOCTYPE svg PUBLIC "-//W3C//DTD SVG 20010904//EN"
 "http://www.w3.org/TR/2001/REC-SVG-20010904/DTD/svg10.dtd">
<svg version="1.0" xmlns="http://www.w3.org/2000/svg"
 width="300.000000pt" height="306.000000pt" viewBox="0 0 300.000000 306.000000"
 preserveAspectRatio="xMidYMid meet">
<metadata>
Created by potrace 1.10, written by Peter Selinger 2001-2011
</metadata>
<g transform="translate(0.000000,306.000000) scale(0.100000,-0.100000)"
fill="#000000" stroke="none">
<path d="M1111 2644 c-104 -28 -179 -97 -236 -217 -65 -138 -100 -172 -253
-247 -45 -22 -101 -59 -123 -81 -43 -43 -89 -129 -89 -166 0 -13 -3 -23 -8
-23 -8 0 -8 -86 1 -110 2 -8 11 -35 18 -59 12 -39 44 -88 121 -186 16 -21 15
-23 -41 -92 -32 -39 -66 -91 -76 -115 -19 -47 -36 -208 -22 -208 5 0 7 -7 3
-15 -3 -8 -2 -15 3 -15 5 0 12 -12 15 -27 9 -34 58 -104 94 -135 16 -13 66
-43 113 -66 98 -48 147 -86 186 -145 29 -43 73 -130 73 -145 0 -23 104 -120
156 -147 53 -27 68 -30 154 -30 88 0 99 2 156 33 33 18 83 53 111 77 l51 45
68 -57 c103 -84 139 -98 259 -98 85 0 107 4 148 24 72 36 129 97 170 183 71
151 124 201 295 278 127 57 206 216 182 364 -11 68 -28 102 -97 194 l-54 73
50 59 c27 33 62 86 77 118 24 48 28 70 28 142 1 153 -63 248 -217 324 -144 71
-192 121 -266 278 -61 129 -173 200 -318 199 -104 0 -156 -23 -268 -117 l-50
-42 -50 45 c-72 66 -112 90 -180 108 -72 18 -113 18 -184 -1z m200 -44 c49
-18 165 -100 182 -128 7 -10 12 -10 23 -1 11 9 14 8 14 -2 0 -11 2 -11 10 1 5
8 10 12 10 7 0 -4 29 15 63 42 105 81 140 95 232 95 67 0 89 -4 137 -27 31
-15 72 -45 91 -66 20 -22 37 -37 39 -35 3 2 14 -19 27 -47 25 -59 21 -72 -12
-41 -13 12 -29 22 -36 22 -9 0 -10 4 -4 13 13 16 13 47 0 47 -6 0 -7 3 -3 7
12 12 -104 61 -174 73 -92 16 -155 2 -260 -57 -62 -35 -78 -48 -66 -55 10 -6
41 4 96 32 99 50 166 59 264 36 68 -16 146 -52 146 -68 0 -11 -7 -10 -80 13
-89 27 -221 28 -281 0 -24 -11 -56 -22 -71 -26 -18 -3 -25 -10 -22 -19 7 -18
63 -12 107 11 17 8 58 18 92 20 100 8 281 -44 335 -97 16 -15 32 -25 36 -22 4
4 4 1 0 -6 -12 -21 92 -113 178 -157 95 -48 154 -102 192 -175 25 -48 29 -66
29 -140 0 -97 -18 -142 -96 -239 -25 -31 -43 -65 -44 -80 0 -16 21 -56 58
-106 96 -133 110 -234 48 -360 -32 -65 -112 -154 -139 -156 -10 0 -34 -10 -54
-22 -20 -12 -59 -35 -87 -51 -28 -16 -48 -32 -46 -37 3 -4 1 -9 -3 -11 -14 -5
-82 -109 -88 -134 -3 -13 -10 -24 -15 -24 -5 0 -9 -7 -9 -16 0 -23 -88 -107
-138 -133 -66 -34 -146 -45 -212 -31 -70 16 -101 32 -172 89 -74 60 -98 59
-183 -3 -102 -75 -143 -89 -244 -84 -71 3 -94 9 -133 32 -70 41 -119 93 -158
169 -67 131 -89 160 -146 193 -23 14 -48 31 -54 39 -7 8 -22 15 -34 15 -12 0
-31 8 -42 17 -11 10 -26 19 -33 21 -42 9 -124 141 -139 222 -17 99 10 183 94
290 61 78 60 91 -21 202 -58 78 -79 143 -73 227 6 77 37 146 94 208 41 43 71
61 142 83 23 7 42 17 42 21 0 4 17 18 38 30 20 13 43 31 50 41 7 9 19 23 26
30 7 8 21 30 31 48 10 19 23 42 30 50 7 8 15 28 19 45 11 44 113 139 177 163
70 27 154 28 220 2z"/>
<path d="M1105 2556 c-27 -7 -64 -20 -82 -29 -32 -17 -76 -57 -69 -64 1 -2 34
11 72 29 64 30 77 33 169 33 97 0 102 -1 168 -38 47 -27 77 -37 99 -35 29 3
25 6 -54 50 -122 68 -195 81 -303 54z"/>
<path d="M1085 2476 c-78 -19 -122 -39 -165 -77 l-35 -31 40 17 c141 61 285
80 365 50 25 -9 55 -19 68 -22 12 -3 22 -9 22 -13 0 -5 11 -3 24 3 18 9 22 15
14 24 -6 7 -18 13 -28 13 -10 0 -38 9 -64 21 -60 26 -164 33 -241 15z"/>
<path d="M1072 2396 c-84 -16 -172 -46 -172 -59 0 -4 -4 -6 -9 -2 -14 8 -25
-35 -13 -47 7 -7 6 -18 -4 -33 -10 -16 -12 -25 -5 -30 6 -3 11 1 11 9 0 9 10
18 23 20 135 29 327 49 342 35 24 -23 -25 -37 -190 -53 -93 -10 -178 -23 -190
-29 -11 -6 -27 -10 -36 -9 -9 2 -22 -4 -29 -13 -7 -8 -16 -13 -20 -10 -6 4
-24 -84 -48 -235 -4 -25 -5 -69 -2 -97 6 -55 -2 -93 -19 -93 -35 0 -25 230 15
351 25 73 27 85 12 75 -10 -6 -18 -14 -18 -19 0 -4 -5 -5 -10 -2 -6 4 -9 3 -8
-2 1 -4 -5 -30 -15 -58 -35 -106 -46 -246 -26 -332 20 -81 19 -80 34 -53 8 14
14 20 15 13 0 -16 -32 -83 -40 -83 -4 0 -7 -6 -7 -12 0 -7 -4 -34 -8 -60 -8
-54 15 -145 47 -190 10 -15 16 -33 12 -39 -4 -8 -13 -1 -23 17 l-15 29 -9 -45
c-33 -177 -8 -360 61 -440 23 -28 36 -25 17 3 -21 33 -52 158 -60 247 -8 86 6
160 31 160 12 0 15 -16 14 -92 -1 -98 23 -283 40 -303 5 -6 7 -14 4 -17 -7 -8
44 -18 71 -15 16 2 20 -3 18 -27 -1 -17 2 -35 8 -42 6 -7 8 -22 4 -33 -9 -28
35 -67 97 -86 125 -37 220 -42 348 -17 42 8 43 9 18 16 -15 5 -27 11 -26 15 2
17 -3 31 -12 31 -5 0 -7 -6 -4 -14 4 -11 -9 -17 -51 -26 -45 -9 -74 -9 -153 4
-144 23 -229 52 -210 71 2 2 53 -5 113 -16 73 -13 144 -19 212 -18 72 2 106
-1 117 -10 9 -8 16 -10 16 -6 0 5 8 1 18 -7 28 -24 87 -48 135 -54 53 -8 150
19 185 49 12 11 22 17 22 12 0 -4 12 4 26 19 15 14 34 26 43 25 11 0 9 -3 -6
-9 -22 -9 -46 -43 -37 -52 3 -3 -8 -9 -23 -13 -28 -8 -28 -8 12 -17 22 -6 84
-12 137 -15 138 -7 291 34 312 83 3 7 -15 5 -47 -6 -75 -26 -155 -43 -172 -36
-8 3 -15 0 -15 -6 0 -14 -166 -6 -182 10 -20 20 0 26 92 28 103 2 331 35 324
46 -3 4 1 18 7 30 11 21 11 22 -4 9 -20 -16 -234 -50 -319 -51 -57 0 -70 8
-45 28 10 8 254 41 344 46 13 0 26 8 28 17 3 9 17 17 33 17 60 3 70 6 69 27 0
11 8 62 17 114 10 52 19 136 20 187 2 97 8 116 29 95 30 -31 4 -304 -38 -385
-21 -39 -13 -43 18 -10 50 54 91 277 67 364 -7 25 -12 57 -11 72 1 20 -3 26
-13 22 -7 -3 -13 -12 -12 -21 0 -9 -7 -17 -16 -18 -10 -2 -18 -2 -18 -1 0 12
33 66 41 66 5 0 9 9 9 19 0 11 4 23 10 26 5 3 8 46 7 98 -2 69 -7 99 -20 119
-10 15 -18 29 -18 32 3 19 0 26 -9 21 -5 -3 -10 -2 -10 4 0 22 18 19 30 -7 13
-27 14 -27 24 28 6 30 10 102 9 160 -1 144 -44 280 -87 280 -2 0 8 -37 21 -82
39 -136 44 -338 7 -338 -15 0 -18 12 -15 80 2 49 -13 191 -30 282 -12 61 -24
71 -96 77 -7 1 -12 13 -12 29 1 75 -6 96 -41 120 -67 45 -229 74 -330 59 -30
-5 -73 -9 -95 -9 -22 -1 -42 -5 -45 -9 -3 -4 -31 1 -63 12 -63 21 -127 20
-174 -4 -19 -10 -34 -12 -44 -6 -8 5 -26 6 -41 3 -15 -3 -35 -1 -45 5 -33 17
-155 21 -231 7z m562 -44 c17 -9 65 -44 106 -77 l76 -60 175 -19 c96 -10 177
-20 180 -22 3 -2 9 -38 12 -81 3 -43 12 -124 18 -180 l12 -102 59 -73 c75 -92
91 -127 91 -208 1 -75 -20 -124 -87 -205 -65 -77 -66 -80 -71 -121 -2 -22 -12
-102 -21 -179 -8 -77 -16 -141 -17 -142 -7 -7 -212 -23 -229 -17 -14 4 -18 2
-14 -5 5 -7 -7 -11 -38 -11 -60 0 -88 -12 -160 -69 -124 -98 -212 -119 -306
-71 -38 19 -180 126 -188 140 -1 3 -23 3 -48 1 -26 -2 -44 1 -41 5 3 5 -18 7
-45 5 -28 -2 -48 1 -45 5 3 5 -34 10 -81 12 -48 1 -90 6 -94 10 -3 4 -15 87
-26 184 l-19 178 -62 79 c-74 96 -94 139 -93 207 0 64 31 127 105 217 l54 66
17 158 c9 87 20 169 24 183 7 24 11 25 185 42 l177 17 77 62 c93 76 157 102
232 94 30 -3 68 -13 85 -23z m-336 4 c10 -6 10 -11 2 -21 -8 -10 -29 -12 -78
-8 -45 3 -110 -2 -196 -16 -71 -12 -131 -19 -134 -16 -16 16 60 44 178 65 54
10 210 7 228 -4z m688 -1 c110 -21 174 -44 174 -61 0 -10 -6 -13 -18 -9 -61
19 -191 37 -281 39 -71 1 -106 6 -109 14 -10 32 109 41 234 17z m57 -85 c65
-11 120 -20 123 -20 2 0 4 -9 4 -21 0 -17 -5 -20 -22 -16 -13 3 -90 13 -173
23 -141 15 -175 24 -175 45 0 15 120 10 243 -11z m-1208 -142 c-3 -29 -13
-109 -20 -177 -14 -122 -29 -166 -47 -139 -9 14 -5 64 18 233 19 134 19 135
40 135 14 0 16 -7 9 -52z m1426 -74 c20 -116 25 -254 10 -254 -5 0 -12 9 -16
20 -10 31 -43 344 -38 353 12 20 26 -18 44 -119z m-1468 -808 c10 -26 29 -216
24 -236 -3 -11 -1 -20 5 -20 6 0 8 -17 6 -40 -2 -22 1 -40 6 -40 6 0 5 -5 -2
-12 -8 -8 -15 -9 -22 -2 -11 11 -36 163 -46 279 -6 73 -5 85 9 85 8 0 17 -6
20 -14z m1467 -224 c-12 -70 -25 -131 -30 -136 -11 -11 -30 2 -25 17 3 7 13
83 24 170 11 92 24 164 32 174 24 28 23 -81 -1 -225z m-1201 -192 c111 -13
170 -25 180 -35 31 -31 19 -31 -259 0 -30 3 -56 10 -58 14 -2 5 -12 7 -22 4
-15 -4 -20 0 -20 16 0 11 3 21 8 21 4 0 81 -9 171 -20z"/>
<path d="M1056 2002 c-3 -3 -6 -207 -6 -454 0 -441 0 -448 20 -448 19 0 20 8
22 423 l3 422 28 -46 27 -46 0 -376 c0 -372 0 -377 20 -377 20 0 21 3 16 340
-3 187 -3 340 -1 340 3 0 16 -18 30 -40 l25 -40 0 -300 c0 -293 0 -300 20
-300 19 0 20 7 20 255 0 140 3 255 8 255 4 0 27 -37 52 -82 70 -127 98 -168
116 -168 14 0 13 6 -7 38 -30 50 -100 169 -239 405 -102 175 -136 218 -154
199z"/>
<path d="M1160 2000 c0 -5 64 -118 143 -252 79 -134 160 -273 181 -310 32 -58
60 -87 73 -74 2 2 -26 55 -63 117 -78 134 -133 227 -235 402 -40 70 -79 127
-86 127 -7 0 -13 -4 -13 -10z"/>
<path d="M1250 2006 c0 -6 31 -59 185 -321 192 -326 185 -315 209 -315 17 0
35 23 84 109 100 173 92 183 89 -117 -2 -244 -1 -262 16 -262 16 0 17 21 17
293 0 284 1 293 22 335 13 23 26 42 30 42 5 0 8 -151 8 -335 0 -328 0 -335 20
-335 20 0 20 7 20 380 l0 380 25 40 c14 22 28 40 30 40 3 0 5 -188 5 -417 -1
-370 1 -418 15 -421 13 -3 15 46 15 453 0 429 -1 456 -17 453 -11 -2 -85 -117
-195 -303 -97 -165 -180 -301 -185 -302 -5 -2 -14 7 -20 19 -8 20 12 60 154
301 91 154 162 281 159 284 -15 15 -44 -27 -181 -265 -82 -144 -155 -261 -161
-262 -6 0 -15 10 -21 22 -8 18 2 42 65 147 143 240 202 342 202 352 0 38 -42
-21 -155 -216 -71 -123 -133 -225 -136 -225 -5 0 -40 58 -221 368 -27 45 -55
82 -63 82 -8 0 -15 -2 -15 -4z"/>
<path d="M659 2147 c-9 -7 -14 -18 -12 -24 3 -7 0 -13 -5 -13 -27 0 -74 -155
-75 -247 0 -39 61 -248 70 -239 11 10 3 105 -11 138 -30 71 -14 224 35 339 23
54 23 64 -2 46z"/>
<path d="M2375 2133 c48 -119 58 -162 59 -258 1 -79 -3 -108 -17 -137 -15 -29
-17 -47 -11 -80 l7 -43 10 35 c5 19 18 53 28 75 26 56 33 141 20 221 -12 70
-55 174 -72 174 -5 0 -9 7 -9 15 0 8 -5 15 -11 15 -7 0 -8 -7 -4 -17z"/>
<path d="M562 2081 c-64 -70 -93 -245 -54 -336 14 -33 66 -127 79 -144 2 -3 8
0 14 6 8 8 0 32 -28 84 -37 71 -38 78 -38 174 0 93 2 105 34 173 19 40 32 74
30 75 -2 2 -19 -12 -37 -32z"/>
<path d="M2463 2085 c4 -11 18 -54 33 -95 22 -63 26 -87 22 -152 -4 -65 -11
-89 -41 -147 -20 -39 -37 -81 -37 -93 l1 -23 20 24 c11 13 37 54 57 90 36 64
37 69 37 166 -1 82 -5 109 -24 152 -24 53 -80 119 -68 78z"/>
<path d="M545 1401 l-50 -86 0 -105 c0 -93 3 -112 27 -162 14 -31 36 -62 49
-68 18 -10 21 -10 16 1 -57 132 -61 146 -61 225 -1 76 1 85 43 166 31 60 41
89 35 100 -7 12 -20 -4 -59 -71z"/>
<path d="M2440 1460 c0 -13 16 -54 35 -92 58 -114 58 -234 0 -351 -14 -27 -24
-52 -22 -54 3 -2 18 10 35 26 43 43 66 119 67 217 0 76 -2 85 -45 168 -50 98
-70 122 -70 86z"/>
<path d="M2410 1443 c-2 -7 -3 -21 -3 -30 -1 -10 -4 -20 -8 -23 -4 -3 5 -39
18 -80 31 -92 27 -177 -12 -290 -42 -121 -41 -119 -15 -90 74 83 108 286 65
385 -10 22 -23 63 -30 90 -8 28 -14 44 -15 38z"/>
<path d="M605 1369 c-26 -65 -30 -86 -30 -174 0 -121 20 -194 69 -250 l35 -40
-31 80 c-41 106 -51 254 -22 337 10 29 22 59 27 66 6 7 6 12 -1 12 -6 0 -12
10 -14 22 -2 15 -12 -1 -33 -53z"/>
<path d="M900 693 c0 -4 16 -21 36 -39 49 -43 120 -65 231 -71 78 -5 100 -3
145 15 29 12 69 25 88 30 l35 9 -35 10 c-22 6 -46 6 -65 0 -97 -30 -133 -36
-184 -31 -74 7 -156 30 -208 59 -24 13 -43 21 -43 18z"/>
<path d="M2040 647 c-72 -26 -100 -31 -180 -31 -74 -1 -103 3 -129 18 -41 22
-126 15 -152 -13 -16 -17 -14 -19 39 -47 30 -16 67 -35 81 -43 51 -28 128 -40
197 -30 67 9 164 45 164 60 0 4 10 17 22 29 12 11 18 23 15 27 -4 3 -7 2 -7
-4 0 -15 -110 -62 -177 -74 -87 -16 -152 -5 -245 44 -58 30 -75 43 -60 45 22
3 56 -5 132 -33 34 -13 67 -16 140 -12 95 4 205 31 195 46 -2 5 9 14 25 21 29
12 51 31 33 29 -4 -1 -46 -15 -93 -32z"/>
<path d="M1443 618 c4 -12 2 -15 -7 -12 -13 5 -44 -7 -116 -45 -80 -43 -203
-35 -312 20 -32 16 -58 25 -58 19 0 -5 5 -10 10 -10 6 0 10 -6 10 -13 0 -18
74 -54 140 -68 29 -6 84 -9 120 -7 56 4 81 13 154 53 48 26 84 50 79 54 -4 3
-12 11 -17 16 -6 6 -7 4 -3 -7z"/>
</g>
</svg>
